<?xml version="1.0" encoding="utf-8"?>
<!-- Generator: Adobe Illustrator 29.0.1, SVG Export Plug-In . SVG Version: 9.03 Build 54978)  -->
<svg version="1.1" id="Layer_1" xmlns="http://www.w3.org/2000/svg" xmlns:xlink="http://www.w3.org/1999/xlink" x="0px" y="0px"
	 viewBox="0 0 319.5 81" style="enable-background:new 0 0 319.5 81;" xml:space="preserve">
<line style="fill:none;stroke:#E23F2C;stroke-width:7;stroke-miterlimit:10;" x1="40.5" y1="4.5" x2="40.5" y2="31.5"/>
<line style="fill:none;stroke:#E23F2C;stroke-width:7;stroke-miterlimit:10;" x1="40.5" y1="49.5" x2="40.5" y2="76.5"/>
<line style="fill:none;stroke:#E23F2C;stroke-width:7;stroke-miterlimit:10;" x1="4.5" y1="40.5" x2="31.5" y2="40.5"/>
<line style="fill:none;stroke:#E23F2C;stroke-width:7;stroke-miterlimit:10;" x1="49.5" y1="40.5" x2="76.5" y2="40.5"/>
<line style="fill:none;stroke:#E23F2C;stroke-width:7;stroke-miterlimit:10;" x1="15.04" y1="15.04" x2="34.14" y2="34.14"/>
<line style="fill:none;stroke:#E23F2C;stroke-width:7;stroke-miterlimit:10;" x1="46.86" y1="46.86" x2="65.96" y2="65.96"/>
<line style="fill:none;stroke:#E23F2C;stroke-width:7;stroke-miterlimit:10;" x1="15.04" y1="65.96" x2="34.14" y2="46.86"/>
<line style="fill:none;stroke:#E23F2C;stroke-width:7;stroke-miterlimit:10;" x1="46.86" y1="34.14" x2="65.96" y2="15.04"/>
<polygon style="fill:none;stroke:#E23F2C;stroke-width:7;stroke-linecap:square;stroke-miterlimit:10;" points="126,58.5 108,22.5 
	90,58.5 "/>
<polyline style="fill:none;stroke:#E23F2C;stroke-width:7;stroke-linecap:square;stroke-miterlimit:10;" points="225,22.5 243,58.5 
	261,22.5 "/>
<path style="fill:none;stroke:#E23F2C;stroke-width:7;stroke-linecap:square;stroke-linejoin:bevel;stroke-miterlimit:10;" d="
	M261,22.5"/>
<polyline style="fill:none;stroke:#E23F2C;stroke-width:7;stroke-linecap:square;stroke-miterlimit:10;" points="144,58.5 144,22.5 
	171,22.5 "/>
<polyline style="fill:none;stroke:#E23F2C;stroke-width:7;stroke-linecap:square;stroke-miterlimit:10;" points="211.5,22.5 
	184.5,22.5 198,40.5 184.5,58.5 211.5,58.5 "/>
<polyline style="fill:none;stroke:#E23F2C;stroke-width:7;stroke-miterlimit:10;" points="310.5,22.5 279,22.5 301.5,58.5 270,58.5 
	"/>
</svg>
